STARTFONT 2.1
COMMENT  
COMMENT  Public domain font.  Share and enjoy.
COMMENT  
COMMENT  WARNING:  This bdf file was generated from a font server using
COMMENT  fstobdf.  The resulting font is subject to the same copyright,
COMMENT  license, and trademark restrictions as the original font.  The
COMMENT  authors and distributors of fstobdf disclaim all liability for
COMMENT  misuse of the program or its output.
COMMENT  
FONT micro
SIZE 4 75 75
FONTBOUNDINGBOX 3 5 0 0
STARTPROPERTIES 12
COPYRIGHT "Public domain font.  Share and enjoy."
POINT_SIZE 40
FONT "micro"
WEIGHT 10
RESOLUTION 103
RESOLUTION_X 75
RESOLUTION_Y 75
X_HEIGHT 5
QUAD_WIDTH 4
DEFAULT_CHAR 0
FONT_ASCENT 5
FONT_DESCENT 0
ENDPROPERTIES
CHARS 128
STARTCHAR C000
ENCODING 0
SWIDTH 960 0
DWIDTH 4 0
BBX 3 3 0 1
BITMAP
e0
e0
e0
ENDCHAR
STARTCHAR C001
ENCODING 1
SWIDTH 960 0
DWIDTH 4 0
BBX 2 5 1 0
BITMAP
80
80
80
c0
80
ENDCHAR
STARTCHAR C002
ENCODING 2
SWIDTH 960 0
DWIDTH 4 0
BBX 3 3 0 0
BITMAP
a0
c0
a0
ENDCHAR
STARTCHAR C003
ENCODING 3
SWIDTH 960 0
DWIDTH 4 0
BBX 3 5 0 0
BITMAP
60
a0
e0
a0
c0
ENDCHAR
STARTCHAR C004
ENCODING 4
SWIDTH 960 0
DWIDTH 4 0
BBX 3 3 0 1
BITMAP
40
e0
a0
ENDCHAR
STARTCHAR C005
ENCODING 5
SWIDTH 960 0
DWIDTH 4 0
BBX 3 2 0 1
BITMAP
e0
20
ENDCHAR
STARTCHAR C006
ENCODING 6
SWIDTH 960 0
DWIDTH 4 0
BBX 2 5 0 0
BITMAP
40
80
c0
80
40
ENDCHAR
STARTCHAR C007
ENCODING 7
SWIDTH 960 0
DWIDTH 4 0
BBX 3 3 0 0
BITMAP
e0
a0
a0
ENDCHAR
STARTCHAR C010
ENCODING 8
SWIDTH 960 0
DWIDTH 4 0
BBX 3 5 0 0
BITMAP
80
40
40
40
a0
ENDCHAR
STARTCHAR C011
ENCODING 9
SWIDTH 960 0
DWIDTH 4 0
BBX 3 4 0 0
BITMAP
a0
40
c0
80
ENDCHAR
STARTCHAR C012
ENCODING 10
SWIDTH 960 0
DWIDTH 4 0
BBX 3 5 0 0
BITMAP
60
80
40
a0
c0
ENDCHAR
STARTCHAR C013
ENCODING 11
SWIDTH 960 0
DWIDTH 4 0
BBX 2 5 1 0
BITMAP
80
c0
80
80
80
ENDCHAR
STARTCHAR C014
ENCODING 12
SWIDTH 960 0
DWIDTH 4 0
BBX 3 4 0 0
BITMAP
40
e0
40
e0
ENDCHAR
STARTCHAR C015
ENCODING 13
SWIDTH 960 0
DWIDTH 4 0
BBX 3 5 0 0
BITMAP
a0
00
40
e0
40
ENDCHAR
STARTCHAR C016
ENCODING 14
SWIDTH 960 0
DWIDTH 4 0
BBX 1 5 1 0
BITMAP
80
00
80
00
80
ENDCHAR
STARTCHAR C017
ENCODING 15
SWIDTH 960 0
DWIDTH 4 0
BBX 3 5 0 0
BITMAP
c0
20
60
a0
c0
ENDCHAR
STARTCHAR C020
ENCODING 16
SWIDTH 960 0
DWIDTH 4 0
BBX 3 4 0 0
BITMAP
60
80
80
60
ENDCHAR
STARTCHAR C021
ENCODING 17
SWIDTH 960 0
DWIDTH 4 0
BBX 3 4 0 0
BITMAP
c0
20
20
c0
ENDCHAR
STARTCHAR C022
ENCODING 18
SWIDTH 960 0
DWIDTH 4 0
BBX 3 4 0 1
BITMAP
40
a0
a0
a0
ENDCHAR
STARTCHAR C023
ENCODING 19
SWIDTH 960 0
DWIDTH 4 0
BBX 3 4 0 1
BITMAP
a0
a0
a0
40
ENDCHAR
STARTCHAR C024
ENCODING 20
SWIDTH 960 0
DWIDTH 4 0
BBX 3 5 0 0
BITMAP
a0
e0
a0
a0
40
ENDCHAR
STARTCHAR C025
ENCODING 21
SWIDTH 960 0
DWIDTH 4 0
BBX 3 5 0 0
BITMAP
e0
20
60
20
e0
ENDCHAR
STARTCHAR C026
ENCODING 22
SWIDTH 960 0
DWIDTH 4 0
BBX 3 5 0 0
BITMAP
a0
00
a0
40
a0
ENDCHAR
STARTCHAR C027
ENCODING 23
SWIDTH 960 0
DWIDTH 4 0
BBX 3 5 0 0
BITMAP
40
20
e0
80
40
ENDCHAR
STARTCHAR C030
ENCODING 24
SWIDTH 960 0
DWIDTH 4 0
BBX 3 5 0 0
BITMAP
20
60
e0
60
20
ENDCHAR
STARTCHAR C031
ENCODING 25
SWIDTH 960 0
DWIDTH 4 0
BBX 3 5 0 0
BITMAP
80
c0
e0
c0
80
ENDCHAR
STARTCHAR C032
ENCODING 26
SWIDTH 960 0
DWIDTH 4 0
BBX 3 5 0 0
BITMAP
20
e0
40
e0
80
ENDCHAR
STARTCHAR C033
ENCODING 27
SWIDTH 960 0
DWIDTH 4 0
BBX 3 5 0 0
BITMAP
40
e0
a0
e0
40
ENDCHAR
STARTCHAR C034
ENCODING 28
SWIDTH 960 0
DWIDTH 4 0
BBX 3 5 0 0
BITMAP
20
40
80
40
e0
ENDCHAR
STARTCHAR C035
ENCODING 29
SWIDTH 960 0
DWIDTH 4 0
BBX 3 5 0 0
BITMAP
80
40
20
40
e0
ENDCHAR
STARTCHAR C036
ENCODING 30
SWIDTH 960 0
DWIDTH 4 0
BBX 3 5 0 0
BITMAP
e0
00
e0
00
e0
ENDCHAR
STARTCHAR C037
ENCODING 31
SWIDTH 960 0
DWIDTH 4 0
BBX 3 3 0 1
BITMAP
a0
a0
40
ENDCHAR
STARTCHAR space
ENCODING 32
SWIDTH 960 0
DWIDTH 4 0
BBX 0 0 0 0
BITMAP
ENDCHAR
STARTCHAR exclam
ENCODING 33
SWIDTH 960 0
DWIDTH 4 0
BBX 2 5 0 0
BITMAP
c0
c0
c0
00
c0
ENDCHAR
STARTCHAR quotedbl
ENCODING 34
SWIDTH 960 0
DWIDTH 4 0
BBX 3 2 0 3
BITMAP
a0
a0
ENDCHAR
STARTCHAR numbersign
ENCODING 35
SWIDTH 960 0
DWIDTH 4 0
BBX 3 5 0 0
BITMAP
a0
e0
a0
e0
a0
ENDCHAR
STARTCHAR dollar
ENCODING 36
SWIDTH 960 0
DWIDTH 4 0
BBX 3 5 0 0
BITMAP
40
e0
c0
60
e0
ENDCHAR
STARTCHAR percent
ENCODING 37
SWIDTH 960 0
DWIDTH 4 0
BBX 3 4 0 1
BITMAP
a0
60
c0
a0
ENDCHAR
STARTCHAR ampersand
ENCODING 38
SWIDTH 960 0
DWIDTH 4 0
BBX 3 5 0 0
BITMAP
40
40
e0
c0
40
ENDCHAR
STARTCHAR apostrophe
ENCODING 39
SWIDTH 960 0
DWIDTH 4 0
BBX 2 2 1 3
BITMAP
40
c0
ENDCHAR
STARTCHAR parenleft
ENCODING 40
SWIDTH 960 0
DWIDTH 4 0
BBX 2 5 1 0
BITMAP
40
80
80
80
40
ENDCHAR
STARTCHAR parenright
ENCODING 41
SWIDTH 960 0
DWIDTH 4 0
BBX 2 5 0 0
BITMAP
80
40
40
40
80
ENDCHAR
STARTCHAR asterisk
ENCODING 42
SWIDTH 960 0
DWIDTH 4 0
BBX 3 5 0 0
BITMAP
a0
40
e0
40
a0
ENDCHAR
STARTCHAR plus
ENCODING 43
SWIDTH 960 0
DWIDTH 4 0
BBX 3 3 0 1
BITMAP
40
e0
40
ENDCHAR
STARTCHAR comma
ENCODING 44
SWIDTH 960 0
DWIDTH 4 0
BBX 2 2 0 0
BITMAP
40
c0
ENDCHAR
STARTCHAR minus
ENCODING 45
SWIDTH 960 0
DWIDTH 4 0
BBX 3 1 0 2
BITMAP
e0
ENDCHAR
STARTCHAR period
ENCODING 46
SWIDTH 960 0
DWIDTH 4 0
BBX 2 2 0 0
BITMAP
c0
c0
ENDCHAR
STARTCHAR slash
ENCODING 47
SWIDTH 960 0
DWIDTH 4 0
BBX 3 5 0 0
BITMAP
20
20
40
40
80
ENDCHAR
STARTCHAR 0
ENCODING 48
SWIDTH 960 0
DWIDTH 4 0
BBX 3 5 0 0
BITMAP
40
a0
a0
a0
40
ENDCHAR
STARTCHAR 1
ENCODING 49
SWIDTH 960 0
DWIDTH 4 0
BBX 2 5 0 0
BITMAP
40
c0
40
40
40
ENDCHAR
STARTCHAR 2
ENCODING 50
SWIDTH 960 0
DWIDTH 4 0
BBX 3 5 0 0
BITMAP
c0
20
40
80
e0
ENDCHAR
STARTCHAR 3
ENCODING 51
SWIDTH 960 0
DWIDTH 4 0
BBX 3 5 0 0
BITMAP
c0
20
60
20
e0
ENDCHAR
STARTCHAR 4
ENCODING 52
SWIDTH 960 0
DWIDTH 4 0
BBX 3 5 0 0
BITMAP
a0
a0
a0
e0
20
ENDCHAR
STARTCHAR 5
ENCODING 53
SWIDTH 960 0
DWIDTH 4 0
BBX 3 5 0 0
BITMAP
e0
80
c0
20
c0
ENDCHAR
STARTCHAR 6
ENCODING 54
SWIDTH 960 0
DWIDTH 4 0
BBX 3 5 0 0
BITMAP
60
80
e0
a0
e0
ENDCHAR
STARTCHAR 7
ENCODING 55
SWIDTH 960 0
DWIDTH 4 0
BBX 3 5 0 0
BITMAP
e0
20
20
40
40
ENDCHAR
STARTCHAR 8
ENCODING 56
SWIDTH 960 0
DWIDTH 4 0
BBX 3 5 0 0
BITMAP
e0
a0
e0
a0
e0
ENDCHAR
STARTCHAR 9
ENCODING 57
SWIDTH 960 0
DWIDTH 4 0
BBX 3 5 0 0
BITMAP
e0
a0
e0
20
c0
ENDCHAR
STARTCHAR colon
ENCODING 58
SWIDTH 960 0
DWIDTH 4 0
BBX 2 5 0 0
BITMAP
c0
c0
00
c0
c0
ENDCHAR
STARTCHAR semicolon
ENCODING 59
SWIDTH 960 0
DWIDTH 4 0
BBX 2 5 0 0
BITMAP
c0
c0
00
40
c0
ENDCHAR
STARTCHAR less
ENCODING 60
SWIDTH 960 0
DWIDTH 4 0
BBX 3 5 0 0
BITMAP
20
40
80
40
20
ENDCHAR
STARTCHAR equal
ENCODING 61
SWIDTH 960 0
DWIDTH 4 0
BBX 3 3 0 1
BITMAP
e0
00
e0
ENDCHAR
STARTCHAR greater
ENCODING 62
SWIDTH 960 0
DWIDTH 4 0
BBX 3 5 0 0
BITMAP
80
40
20
40
80
ENDCHAR
STARTCHAR question
ENCODING 63
SWIDTH 960 0
DWIDTH 4 0
BBX 3 5 0 0
BITMAP
e0
20
60
00
40
ENDCHAR
STARTCHAR at
ENCODING 64
SWIDTH 960 0
DWIDTH 4 0
BBX 3 5 0 0
BITMAP
60
a0
c0
80
60
ENDCHAR
STARTCHAR A
ENCODING 65
SWIDTH 960 0
DWIDTH 4 0
BBX 3 5 0 0
BITMAP
e0
a0
e0
a0
a0
ENDCHAR
STARTCHAR B
ENCODING 66
SWIDTH 960 0
DWIDTH 4 0
BBX 3 5 0 0
BITMAP
e0
a0
c0
a0
e0
ENDCHAR
STARTCHAR C
ENCODING 67
SWIDTH 960 0
DWIDTH 4 0
BBX 3 5 0 0
BITMAP
e0
80
80
80
e0
ENDCHAR
STARTCHAR D
ENCODING 68
SWIDTH 960 0
DWIDTH 4 0
BBX 3 5 0 0
BITMAP
c0
a0
a0
a0
c0
ENDCHAR
STARTCHAR E
ENCODING 69
SWIDTH 960 0
DWIDTH 4 0
BBX 3 5 0 0
BITMAP
e0
80
e0
80
e0
ENDCHAR
STARTCHAR F
ENCODING 70
SWIDTH 960 0
DWIDTH 4 0
BBX 3 5 0 0
BITMAP
e0
80
e0
80
80
ENDCHAR
STARTCHAR G
ENCODING 71
SWIDTH 960 0
DWIDTH 4 0
BBX 3 5 0 0
BITMAP
e0
80
a0
a0
e0
ENDCHAR
STARTCHAR H
ENCODING 72
SWIDTH 960 0
DWIDTH 4 0
BBX 3 5 0 0
BITMAP
a0
a0
e0
a0
a0
ENDCHAR
STARTCHAR I
ENCODING 73
SWIDTH 960 0
DWIDTH 4 0
BBX 3 5 0 0
BITMAP
e0
40
40
40
e0
ENDCHAR
STARTCHAR J
ENCODING 74
SWIDTH 960 0
DWIDTH 4 0
BBX 3 5 0 0
BITMAP
20
20
20
a0
e0
ENDCHAR
STARTCHAR K
ENCODING 75
SWIDTH 960 0
DWIDTH 4 0
BBX 3 5 0 0
BITMAP
a0
a0
c0
a0
a0
ENDCHAR
STARTCHAR L
ENCODING 76
SWIDTH 960 0
DWIDTH 4 0
BBX 3 5 0 0
BITMAP
80
80
80
80
e0
ENDCHAR
STARTCHAR M
ENCODING 77
SWIDTH 960 0
DWIDTH 4 0
BBX 3 5 0 0
BITMAP
a0
e0
a0
a0
a0
ENDCHAR
STARTCHAR N
ENCODING 78
SWIDTH 960 0
DWIDTH 4 0
BBX 3 5 0 0
BITMAP
e0
a0
a0
a0
a0
ENDCHAR
STARTCHAR O
ENCODING 79
SWIDTH 960 0
DWIDTH 4 0
BBX 3 5 0 0
BITMAP
e0
a0
a0
a0
e0
ENDCHAR
STARTCHAR P
ENCODING 80
SWIDTH 960 0
DWIDTH 4 0
BBX 3 5 0 0
BITMAP
e0
a0
e0
80
80
ENDCHAR
STARTCHAR Q
ENCODING 81
SWIDTH 960 0
DWIDTH 4 0
BBX 3 5 0 0
BITMAP
e0
a0
a0
c0
60
ENDCHAR
STARTCHAR R
ENCODING 82
SWIDTH 960 0
DWIDTH 4 0
BBX 3 5 0 0
BITMAP
e0
a0
c0
a0
a0
ENDCHAR
STARTCHAR S
ENCODING 83
SWIDTH 960 0
DWIDTH 4 0
BBX 3 5 0 0
BITMAP
e0
80
e0
20
e0
ENDCHAR
STARTCHAR T
ENCODING 84
SWIDTH 960 0
DWIDTH 4 0
BBX 3 5 0 0
BITMAP
e0
40
40
40
40
ENDCHAR
STARTCHAR U
ENCODING 85
SWIDTH 960 0
DWIDTH 4 0
BBX 3 5 0 0
BITMAP
a0
a0
a0
a0
e0
ENDCHAR
STARTCHAR V
ENCODING 86
SWIDTH 960 0
DWIDTH 4 0
BBX 3 5 0 0
BITMAP
a0
a0
a0
a0
40
ENDCHAR
STARTCHAR W
ENCODING 87
SWIDTH 960 0
DWIDTH 4 0
BBX 3 5 0 0
BITMAP
a0
a0
a0
e0
a0
ENDCHAR
STARTCHAR X
ENCODING 88
SWIDTH 960 0
DWIDTH 4 0
BBX 3 5 0 0
BITMAP
a0
e0
40
e0
a0
ENDCHAR
STARTCHAR Y
ENCODING 89
SWIDTH 960 0
DWIDTH 4 0
BBX 3 5 0 0
BITMAP
a0
a0
e0
40
40
ENDCHAR
STARTCHAR Z
ENCODING 90
SWIDTH 960 0
DWIDTH 4 0
BBX 3 5 0 0
BITMAP
e0
20
40
80
e0
ENDCHAR
STARTCHAR bracketleft
ENCODING 91
SWIDTH 960 0
DWIDTH 4 0
BBX 2 5 1 0
BITMAP
c0
80
80
80
c0
ENDCHAR
STARTCHAR backslash
ENCODING 92
SWIDTH 960 0
DWIDTH 4 0
BBX 3 5 0 0
BITMAP
80
80
40
40
20
ENDCHAR
STARTCHAR bracketright
ENCODING 93
SWIDTH 960 0
DWIDTH 4 0
BBX 2 5 0 0
BITMAP
c0
40
40
40
c0
ENDCHAR
STARTCHAR asciicircum
ENCODING 94
SWIDTH 960 0
DWIDTH 4 0
BBX 3 2 0 3
BITMAP
40
a0
ENDCHAR
STARTCHAR underscore
ENCODING 95
SWIDTH 960 0
DWIDTH 4 0
BBX 3 1 0 0
BITMAP
e0
ENDCHAR
STARTCHAR grave
ENCODING 96
SWIDTH 960 0
DWIDTH 4 0
BBX 2 2 1 3
BITMAP
80
c0
ENDCHAR
STARTCHAR a
ENCODING 97
SWIDTH 960 0
DWIDTH 4 0
BBX 3 4 0 0
BITMAP
e0
60
a0
e0
ENDCHAR
STARTCHAR b
ENCODING 98
SWIDTH 960 0
DWIDTH 4 0
BBX 3 5 0 0
BITMAP
80
e0
a0
a0
e0
ENDCHAR
STARTCHAR c
ENCODING 99
SWIDTH 960 0
DWIDTH 4 0
BBX 3 4 0 0
BITMAP
e0
80
80
e0
ENDCHAR
STARTCHAR d
ENCODING 100
SWIDTH 960 0
DWIDTH 4 0
BBX 3 5 0 0
BITMAP
20
e0
a0
a0
e0
ENDCHAR
STARTCHAR e
ENCODING 101
SWIDTH 960 0
DWIDTH 4 0
BBX 3 4 0 0
BITMAP
e0
a0
c0
e0
ENDCHAR
STARTCHAR f
ENCODING 102
SWIDTH 960 0
DWIDTH 4 0
BBX 3 5 0 0
BITMAP
60
80
c0
80
80
ENDCHAR
STARTCHAR g
ENCODING 103
SWIDTH 960 0
DWIDTH 4 0
BBX 3 4 0 0
BITMAP
e0
a0
60
e0
ENDCHAR
STARTCHAR h
ENCODING 104
SWIDTH 960 0
DWIDTH 4 0
BBX 3 5 0 0
BITMAP
80
e0
a0
a0
a0
ENDCHAR
STARTCHAR i
ENCODING 105
SWIDTH 960 0
DWIDTH 4 0
BBX 1 4 1 0
BITMAP
80
80
80
80
ENDCHAR
STARTCHAR j
ENCODING 106
SWIDTH 960 0
DWIDTH 4 0
BBX 3 4 0 0
BITMAP
20
20
a0
e0
ENDCHAR
STARTCHAR k
ENCODING 107
SWIDTH 960 0
DWIDTH 4 0
BBX 3 5 0 0
BITMAP
80
a0
c0
c0
a0
ENDCHAR
STARTCHAR l
ENCODING 108
SWIDTH 960 0
DWIDTH 4 0
BBX 2 5 0 0
BITMAP
c0
40
40
40
40
ENDCHAR
STARTCHAR m
ENCODING 109
SWIDTH 960 0
DWIDTH 4 0
BBX 3 4 0 0
BITMAP
a0
e0
a0
a0
ENDCHAR
STARTCHAR n
ENCODING 110
SWIDTH 960 0
DWIDTH 4 0
BBX 3 4 0 0
BITMAP
e0
a0
a0
a0
ENDCHAR
STARTCHAR o
ENCODING 111
SWIDTH 960 0
DWIDTH 4 0
BBX 3 4 0 0
BITMAP
e0
a0
a0
e0
ENDCHAR
STARTCHAR p
ENCODING 112
SWIDTH 960 0
DWIDTH 4 0
BBX 3 4 0 0
BITMAP
e0
a0
e0
80
ENDCHAR
STARTCHAR q
ENCODING 113
SWIDTH 960 0
DWIDTH 4 0
BBX 3 4 0 0
BITMAP
e0
a0
e0
20
ENDCHAR
STARTCHAR r
ENCODING 114
SWIDTH 960 0
DWIDTH 4 0
BBX 3 4 0 0
BITMAP
e0
a0
80
80
ENDCHAR
STARTCHAR s
ENCODING 115
SWIDTH 960 0
DWIDTH 4 0
BBX 3 4 0 0
BITMAP
e0
c0
60
e0
ENDCHAR
STARTCHAR t
ENCODING 116
SWIDTH 960 0
DWIDTH 4 0
BBX 3 5 0 0
BITMAP
40
e0
40
40
60
ENDCHAR
STARTCHAR u
ENCODING 117
SWIDTH 960 0
DWIDTH 4 0
BBX 3 4 0 0
BITMAP
a0
a0
a0
e0
ENDCHAR
STARTCHAR v
ENCODING 118
SWIDTH 960 0
DWIDTH 4 0
BBX 3 4 0 0
BITMAP
a0
a0
a0
40
ENDCHAR
STARTCHAR w
ENCODING 119
SWIDTH 960 0
DWIDTH 4 0
BBX 3 4 0 0
BITMAP
a0
a0
e0
a0
ENDCHAR
STARTCHAR x
ENCODING 120
SWIDTH 960 0
DWIDTH 4 0
BBX 3 4 0 0
BITMAP
a0
40
40
a0
ENDCHAR
STARTCHAR y
ENCODING 121
SWIDTH 960 0
DWIDTH 4 0
BBX 3 4 0 0
BITMAP
a0
a0
60
c0
ENDCHAR
STARTCHAR z
ENCODING 122
SWIDTH 960 0
DWIDTH 4 0
BBX 3 4 0 0
BITMAP
e0
60
c0
e0
ENDCHAR
STARTCHAR braceleft
ENCODING 123
SWIDTH 960 0
DWIDTH 4 0
BBX 3 5 0 0
BITMAP
60
40
c0
40
60
ENDCHAR
STARTCHAR bar
ENCODING 124
SWIDTH 960 0
DWIDTH 4 0
BBX 1 5 1 0
BITMAP
80
80
80
80
80
ENDCHAR
STARTCHAR braceright
ENCODING 125
SWIDTH 960 0
DWIDTH 4 0
BBX 3 5 0 0
BITMAP
c0
40
60
40
c0
ENDCHAR
STARTCHAR asciitilde
ENCODING 126
SWIDTH 960 0
DWIDTH 4 0
BBX 3 2 0 2
BITMAP
c0
60
ENDCHAR
STARTCHAR C177
ENCODING 127
SWIDTH 960 0
DWIDTH 4 0
BBX 3 5 0 0
BITMAP
60
40
40
40
c0
ENDCHAR
ENDFONT
